<svg version="1.2" xmlns="http://www.w3.org/2000/svg" viewBox="0 0 22 13" width="22" height="13">
	<title>download-svg</title>
	<style>
		.s0 { fill: #ffffff } 
	</style>
	<path id="Layer" fill-rule="evenodd" class="s0" d="m1 1q0.1-0.1 0.3-0.1 0.1-0.1 0.3-0.1 0.1 0 0.3 0.1 0.1 0 0.2 0.1l8.9 9.2 8.9-9.2q0.2-0.2 0.5-0.2 0.4 0 0.6 0.3 0.2 0.2 0.2 0.5 0 0.4-0.2 0.6l-9.4 9.8q-0.2 0.1-0.3 0.1-0.1 0.1-0.3 0.1-0.2 0-0.3-0.1-0.1 0-0.3-0.1l-9.4-9.8q-0.1-0.1-0.2-0.3 0-0.1 0-0.3 0-0.1 0-0.3 0.1-0.1 0.2-0.3z"/>
</svg>