<svg version="1.2" xmlns="http://www.w3.org/2000/svg" viewBox="0 0 20 35" width="20" height="35">
	<title>rightArrow</title>
	<style>
		.s0 { fill: #000000 } 
	</style>
	<path id="Layer" class="s0" d="m18.4 1.6q0.2 0.2 0.3 0.4 0.1 0.3 0.1 0.5 0 0.2-0.1 0.5-0.1 0.2-0.3 0.4l-14.1 14.1 14.1 14.1c0.2 0.3 0.4 0.6 0.4 0.9 0 0.3-0.2 0.6-0.4 0.9-0.3 0.2-0.6 0.4-0.9 0.4-0.3 0-0.6-0.2-0.9-0.4l-15-15q-0.2-0.2-0.3-0.4-0.1-0.3-0.1-0.5 0-0.2 0.1-0.5 0.1-0.2 0.3-0.4l15-15q0.2-0.2 0.4-0.3 0.3-0.1 0.5-0.1 0.2 0 0.5 0.1 0.2 0.1 0.4 0.3z"/>
</svg>