<svg width="51" height="51" viewBox="0 0 51 51" fill="none" xmlns="http://www.w3.org/2000/svg">
<path d="M25.998 50.3027C39.8051 50.3027 50.998 39.1099 50.998 25.3027C50.998 11.4956 39.8051 0.302734 25.998 0.302734C12.1909 0.302734 0.998047 11.4956 0.998047 25.3027C0.998047 39.1099 12.1909 50.3027 25.998 50.3027Z" fill="#D4AF37"/>
<path d="M25.9983 13.2656C22.7292 13.2656 22.3191 13.2795 21.0355 13.3381C19.7542 13.3965 18.8792 13.6001 18.1134 13.8978C17.322 14.2054 16.6505 14.6169 15.9815 15.2859C15.3122 15.9552 14.9007 16.6264 14.5931 17.4178C14.2954 18.1837 14.0918 19.0586 14.0334 20.3399C13.9748 21.6235 13.9609 22.0333 13.9609 25.3027C13.9609 28.5717 13.9748 28.9816 14.0334 30.2654C14.0918 31.5465 14.2954 32.4217 14.5931 33.1872C14.9007 33.9789 15.3122 34.6501 15.9815 35.3191C16.6508 35.9884 17.322 36.3999 18.1134 36.7075C18.8792 37.0052 19.7542 37.2088 21.0355 37.2672C22.3194 37.3258 22.7292 37.3397 25.9983 37.3397C29.2673 37.3397 29.6771 37.3258 30.961 37.2672C32.2424 37.2088 33.1173 37.0052 33.8828 36.7075C34.6745 36.3999 35.3457 35.9884 36.015 35.3191C36.684 34.6501 37.0955 33.9789 37.4031 33.1872C37.7008 32.4217 37.9044 31.5465 37.9628 30.2654C38.0214 28.9816 38.0353 28.5717 38.0353 25.3027C38.0353 22.0336 38.0214 21.6235 37.9628 20.3399C37.9044 19.0586 37.7008 18.1837 37.4031 17.4178C37.0955 16.6264 36.684 15.9552 36.015 15.2859C35.3457 14.6169 34.6745 14.2054 33.8828 13.8978C33.1173 13.6001 32.2424 13.3965 30.961 13.3381C29.6771 13.2792 29.2673 13.2656 25.9983 13.2656Z" fill="#272932"/>
<path d="M25.9981 19.1216C22.5843 19.1216 19.8169 21.889 19.8169 25.3028C19.8169 28.7166 22.5843 31.484 25.9981 31.484C29.4119 31.484 32.1793 28.7166 32.1793 25.3028C32.1793 21.889 29.4119 19.1216 25.9981 19.1216ZM25.9981 29.3156C23.7821 29.3156 21.9856 27.5191 21.9856 25.3031C21.9856 23.0871 23.7818 21.2906 25.9981 21.2906C28.2144 21.2906 30.0107 23.0871 30.0107 25.3031C30.0107 27.5191 28.2141 29.3156 25.9981 29.3156Z" fill="#D4AF37"/>
<path d="M32.424 20.3216C33.2217 20.3216 33.8685 19.6749 33.8685 18.8771C33.8685 18.0793 33.2217 17.4326 32.424 17.4326C31.6262 17.4326 30.9795 18.0793 30.9795 18.8771C30.9795 19.6749 31.6262 20.3216 32.424 20.3216Z" fill="#D4AF37"/>
</svg>
