<svg width="51" height="51" viewBox="0 0 51 51" fill="none" xmlns="http://www.w3.org/2000/svg">
<path d="M25.998 50.3027C39.8052 50.3027 50.998 39.1099 50.998 25.3027C50.998 11.4956 39.8052 0.302734 25.998 0.302734C12.1909 0.302734 0.998047 11.4956 0.998047 25.3027C0.998047 39.1099 12.1909 50.3027 25.998 50.3027Z" fill="#D4AF37"/>
<path d="M27.2919 23.4315C27.6262 23.0555 27.902 22.6738 28.2457 22.35C29.3019 21.3545 30.5517 20.8521 32.0104 20.8645C32.8118 20.8711 33.6045 20.9294 34.3776 21.1527C36.1453 21.6638 37.173 22.8811 37.6628 24.6077C38.0303 25.9028 38.0979 27.2323 38.1003 28.5664C38.1051 31.3799 38.0922 34.1937 38.0982 37.0076C38.0988 37.271 38.0252 37.3401 37.7654 37.338C36.3161 37.3259 34.8664 37.3256 33.4168 37.3383C33.1618 37.3407 33.1069 37.2616 33.1078 37.0205C33.1157 34.3434 33.1178 31.666 33.1093 28.9888C33.1069 28.3177 33.0644 27.6475 32.8761 26.9952C32.5297 25.7936 31.6694 25.1813 30.4105 25.2477C28.6917 25.3385 27.7979 26.1895 27.5786 27.9375C27.5261 28.3551 27.5013 28.7728 27.5016 29.1934C27.504 31.7969 27.4989 34.401 27.5086 37.0045C27.5095 37.264 27.4443 37.3407 27.179 37.3383C25.7192 37.3253 24.2587 37.3271 22.7988 37.3374C22.565 37.3392 22.4971 37.2758 22.4974 37.0392C22.5037 31.8841 22.504 26.729 22.4971 21.5742C22.4968 21.3189 22.5804 21.2601 22.8215 21.2619C24.208 21.2718 25.5945 21.2734 26.9811 21.261C27.2364 21.2586 27.3019 21.3412 27.2964 21.5826C27.2822 22.1985 27.2919 22.815 27.2919 23.4315Z" fill="#272932"/>
<path d="M19.3499 29.3231C19.3499 31.8732 19.3453 34.4236 19.3559 36.9737C19.3571 37.257 19.2868 37.343 18.9932 37.3397C17.5445 37.3237 16.0952 37.3273 14.6465 37.3376C14.4141 37.3391 14.3441 37.2809 14.3447 37.0413C14.3514 31.8777 14.3511 26.7141 14.3459 21.5506C14.3456 21.3369 14.3975 21.2606 14.6245 21.2621C16.0943 21.2715 17.5644 21.2745 19.0342 21.2603C19.3167 21.2576 19.355 21.3671 19.3547 21.6091C19.3474 24.1806 19.3499 26.7516 19.3499 29.3231Z" fill="#272932"/>
<path d="M19.7494 16.1452C19.7509 17.7463 18.451 19.0508 16.8538 19.0514C15.2766 19.052 13.9661 17.7463 13.961 16.17C13.9555 14.5764 15.2654 13.2641 16.8596 13.2656C18.4428 13.2671 19.7476 14.5671 19.7494 16.1452Z" fill="#272932"/>
</svg>
